HIERARCHY
ROOT SimulationBone
{
	OFFSET 0.000000 0.000000 0.000000
	CHANNELS 6 Xposition Yposition Zposition Zrotation Yrotation Xrotation 
	JOINT Hips
	{
		OFFSET 0.000000 0.000000 0.000000
		CHANNELS 6 Xposition Yposition Zposition Zrotation Yrotation Xrotation 
		JOINT RightUpLeg
		{
			OFFSET 0.103458 1.857842 10.548504
			CHANNELS 3 Zrotation Yrotation Xrotation
			JOINT RightLeg
			{
				OFFSET 43.500000 -0.000038 0.000000
				CHANNELS 3 Zrotation Yrotation Xrotation
				JOINT RightFoot
				{
					OFFSET 42.372200 0.000008 0.000004
					CHANNELS 3 Zrotation Yrotation Xrotation
					JOINT RightToe
					{
						OFFSET 17.299992 -0.000003 -0.000013
						CHANNELS 3 Zrotation Yrotation Xrotation
						End Site
						{
							OFFSET 0.000000 0.000000 0.000000
						}
					}
				}
			}
		}
		JOINT LeftUpLeg
		{
			OFFSET 0.103456 1.857816 -10.548503
			CHANNELS 3 Zrotation Yrotation Xrotation
			JOINT LeftLeg
			{
				OFFSET 43.500042 -0.000023 0.000008
				CHANNELS 3 Zrotation Yrotation Xrotation
				JOINT LeftFoot
				{
					OFFSET 42.372265 -0.000008 0.000010
					CHANNELS 3 Zrotation Yrotation Xrotation
					JOINT LeftToe
					{
						OFFSET 17.300022 0.000005 0.000000
						CHANNELS 3 Zrotation Yrotation Xrotation
						End Site
						{
							OFFSET 0.000000 0.000000 0.000000
						}
					}
				}
			}
		}
		JOINT Spine
		{
			OFFSET 6.901966 -2.603735 -0.000002
			CHANNELS 3 Zrotation Yrotation Xrotation
			JOINT Spine1
			{
				OFFSET 12.588103 0.000016 0.000000
				CHANNELS 3 Zrotation Yrotation Xrotation
				JOINT Spine2
				{
					OFFSET 12.343200 0.000002 -0.000002
					CHANNELS 3 Zrotation Yrotation Xrotation
					JOINT Neck
					{
						OFFSET 25.832891 -0.000029 0.000006
						CHANNELS 3 Zrotation Yrotation Xrotation
						JOINT Head
						{
							OFFSET 11.766613 0.000029 -0.000002
							CHANNELS 3 Zrotation Yrotation Xrotation
							End Site
							{
								OFFSET 0.000000 0.000000 0.000000
							}
						}
					}
					JOINT RightShoulder
					{
						OFFSET 19.745903 -1.480385 6.000109
						CHANNELS 3 Zrotation Yrotation Xrotation
						JOINT RightArm
						{
							OFFSET 11.284124 -0.000024 -0.000022
							CHANNELS 3 Zrotation Yrotation Xrotation
							JOINT RightForeArm
							{
								OFFSET 33.000057 0.000000 0.000033
								CHANNELS 3 Zrotation Yrotation Xrotation
								JOINT RightHand
								{
									OFFSET 25.199997 0.000045 -0.000004
									CHANNELS 3 Zrotation Yrotation Xrotation
									End Site
									{
										OFFSET 0.000000 0.000000 0.000000
									}
								}
							}
						}
					}
					JOINT LeftShoulder
					{
						OFFSET 19.746105 -1.480396 -6.000069
						CHANNELS 3 Zrotation Yrotation Xrotation
						JOINT LeftArm
						{
							OFFSET 11.284142 -0.000028 -0.000010
							CHANNELS 3 Zrotation Yrotation Xrotation
							JOINT LeftForeArm
							{
								OFFSET 33.000084 0.000033 0.000011
								CHANNELS 3 Zrotation Yrotation Xrotation
								JOINT LeftHand
								{
									OFFSET 25.199783 0.000119 0.000426
									CHANNELS 3 Zrotation Yrotation Xrotation
									End Site
									{
										OFFSET 0.000000 0.000000 0.000000
									}
								}
							}
						}
					}
				}
			}
		}
	}
}
MOTION
Frames: 5
Frame Time: 0.016667
227.991008 0.000000 396.555866 180.000000 -45.927355 180.000000 -2.139908 87.068817 4.305417 95.121707 6.565995 -179.481686 168.531926 -4.217410 -175.810135 -45.693548 2.054738 5.822406 100.442889 -3.799681 2.252812 21.454560 0.003111 0.000017 158.137416 1.213997 179.124634 -18.652791 3.260036 0.639367 66.792795 3.453977 10.778211 21.454553 -0.003088 -0.000000 11.318503 -0.867707 -0.728619 12.636673 -1.650472 -1.547867 12.318573 -1.659916 -1.537883 17.320035 -3.269926 -24.053039 -15.596409 32.165470 -36.380151 155.786928 -75.039070 23.324602 -21.612348 44.442377 28.001586 -38.746119 -20.228614 1.793051 5.200275 -13.917125 5.460006 -169.474792 79.832399 12.224742 -15.532602 -60.641703 -22.913527 -53.217435 18.909968 -2.119686 -7.458708 22.148593 -1.502412 
228.560619 0.000000 396.406534 180.000000 -44.235613 180.000000 -2.053158 87.226957 4.376485 95.282002 6.837413 -179.518375 168.734089 -4.302757 -176.024892 -45.267062 1.905915 4.897599 100.201684 -3.180543 2.203030 21.454558 0.003110 0.000018 158.426418 1.021542 179.397911 -19.804844 3.255425 0.805520 66.575329 3.066836 10.018699 21.454555 -0.003093 -0.000001 11.296843 -0.839667 -0.670858 12.592076 -1.601160 -1.429307 12.273961 -1.609886 -1.419621 17.561461 -2.933242 -24.239378 -15.744746 31.976603 -36.556482 156.051033 -75.329164 23.039614 -21.515329 44.667805 27.961787 -39.215539 -20.459350 1.820649 5.012211 -13.777295 5.990533 -169.950515 79.790176 11.741098 -15.275906 -60.791536 -23.789909 -52.295203 18.951163 -2.090553 -7.450339 22.309925 -1.442410 
229.102826 0.000000 396.272131 180.000000 -42.565055 180.000000 -1.967670 87.374802 4.440733 95.433390 7.087836 -179.649767 168.948144 -4.393603 -176.287469 -44.847103 1.749186 3.965580 99.965910 -2.557123 2.137257 21.454557 0.003111 0.000018 158.701098 0.958209 179.304200 -21.061431 3.480439 0.947929 66.732955 2.897312 9.888277 21.454555 -0.003095 -0.000001 11.279548 -0.810521 -0.607438 12.556208 -1.550167 -1.299418 12.238077 -1.558113 -1.290041 17.713378 -2.725478 -24.378371 -15.891902 31.899383 -36.722928 155.859888 -75.491297 23.225629 -21.109542 44.856939 27.977454 -39.846930 -20.611979 1.847432 4.934683 -13.839531 6.006354 -170.213367 79.847965 11.474082 -15.058258 -60.956329 -24.656849 -51.387972 19.000135 -2.063372 -7.402476 22.385581 -1.331907 
229.617757 0.000000 396.151832 180.000000 -40.912634 180.000000 -1.885670 87.510774 4.498340 95.570597 7.310443 -179.844322 169.156270 -4.494320 -176.674581 -44.439038 1.626661 3.080014 99.739842 -1.966543 2.059114 21.454557 0.003113 0.000018 158.962327 0.994961 179.086773 -22.399024 3.799843 0.993424 67.225415 2.865316 10.028472 21.454553 -0.003095 0.000000 11.262608 -0.784096 -0.547741 12.521207 -1.504157 -1.177270 12.203062 -1.511371 -1.168174 17.801606 -2.600832 -24.462979 -16.012514 31.897752 -36.850871 155.529530 -75.566703 23.558132 -20.515543 44.999437 28.058920 -40.566447 -20.695708 1.872514 4.907614 -14.063789 5.685463 -170.467473 79.967961 11.216217 -14.859132 -61.108370 -25.495883 -50.494807 19.041059 -2.036428 -7.345079 22.391871 -1.242622 
230.105539 0.000000 396.044814 180.000000 -39.275545 180.000000 -1.809381 87.633293 4.549703 95.688520 7.498642 179.929295 169.341044 -4.608990 -177.262971 -44.049723 1.579538 2.295203 99.527945 -1.445902 1.972588 21.454558 0.003113 0.000018 159.210248 1.100406 178.988536 -23.795197 4.074861 0.874661 68.016300 2.889815 10.082709 21.454553 -0.003093 0.000001 11.242001 -0.764219 -0.501149 12.479153 -1.469783 -1.081937 12.161000 -1.476425 -1.073052 17.851567 -2.513257 -24.485506 -16.080751 31.935822 -36.911253 155.390476 -75.597390 23.698138 -19.855379 45.084551 28.214535 -41.300087 -20.719831 1.894569 4.872922 -14.408979 5.205116 -170.918407 80.111582 10.758582 -14.660052 -61.219708 -26.286691 -49.614958 19.058063 -2.008530 -7.308120 22.345300 -1.246332 
